<?xml version="1.0" encoding="utf-8"?>
<!-- Generator: Adobe Illustrator 19.1.0, SVG Export Plug-In . SVG Version: 6.00 Build 0)  -->
<svg version="1.1" id="Layer_1" xmlns="http://www.w3.org/2000/svg" xmlns:xlink="http://www.w3.org/1999/xlink" x="0px" y="0px"
	 viewBox="0 0 200 65.6" style="enable-background:new 0 0 200 65.6;" xml:space="preserve">
<style type="text/css">
	.st0{fill:#FFFFFF;}
</style>
<g>
	<g>
		<path id="path22_5_" class="st0" d="M138.3,20.2L97.8,0L57.4,20.2c0,0,21.6-9.7,40.5-9.7C114.6,10.5,138.3,20.2,138.3,20.2"/>
		<path id="path24_5_" class="st0" d="M57.4,24.8h6.1v8.4h0.2c3.1-6.4,7.5-9.5,14.6-9.3v6.9c-10.5,0-14.4,6-14.4,16.1v17.7h-6.5
			V24.8"/>
		<path id="path26_5_" class="st0" d="M83.2,24.8h6.1v5.8h0.2c2.9-4.4,7.4-6.8,12.9-6.8c4.8,0,9.3,1.9,10.9,6.8
			c2.7-4.2,7.4-6.8,12.5-6.8c7.9,0,13.3,3.3,13.3,11.6v29.2h-6.5V38.5c0-4.9-1.3-8.8-7.7-8.8c-6.3,0-10.4,4-10.4,10.2v24.8h-6.5
			V38.5c0-5.1-1.6-8.8-7.5-8.8c-7.8,0-10.6,7.1-10.6,10.2v24.8h-6.5L83.2,24.8"/>
		<path id="path28_5_" class="st0" d="M40.9,30.7h6.5v-5.8h-6.5V30.7z"/>
		<path id="path30_5_" class="st0" d="M40.9,64.6h6.5V32.4h-6.5V64.6z"/>
		<path id="path32_5_" class="st0" d="M26.8,50.8c0,3.6-3.5,9-12.2,9c-4,0-7.7-1.5-7.7-5.8c0-4.8,3.7-6.4,8-7.1
			c4.4-0.8,9.3-0.8,11.9-2.7V50.8z M33.3,64.7V34c-0.5-8.5-8-10.1-14.9-10.1c-8.8,0-16.5,3.4-16.9,13.3h6.5c0.3-5.8,4.4-7.5,9.9-7.5
			c4.1,0,8.8,0.9,8.8,6.6c0,4.9-6.1,4.4-13.4,5.8C6.7,43.5,0,45.4,0,54.4c0,7.9,5.9,11.2,13.2,11.2c5.5,0,10.4-1.9,14-6.1v5.3H33.3"
			/>
		<path id="path34_5_" class="st0" d="M149.2,64.6h6.5V32.4h-6.5V64.6z"/>
		<path id="path36_5_" class="st0" d="M149.2,30.7h6.5v-5.8h-6.5V30.7z"/>
		<path id="path38_5_" class="st0" d="M192.9,37.6c-1-5-4.4-7.9-9.9-7.9c-9.5,0-12.4,7.5-12.4,15.6c0,7.3,3.3,14.6,11.6,14.6
			c6.3,0,10.1-3.7,10.9-9.7h6.7c-1.5,9.7-7.6,15.4-17.6,15.4c-12.2,0-18.6-8.5-18.6-20.3c0-11.9,6.1-21.3,18.8-21.3
			c9,0,16.2,4.2,17.2,13.7H192.9"/>
	</g>
</g>
</svg>
