<?xml version="1.0" encoding="UTF-8"?>
<svg width="267px" height="57px" viewBox="0 0 267 57" version="1.1" xmlns="http://www.w3.org/2000/svg" xmlns:xlink="http://www.w3.org/1999/xlink">
    <!-- Generator: Sketch 52.5 (67469) - http://www.bohemiancoding.com/sketch -->
    <title>Logos/Logo_Macmillan/Black</title>
    <desc>Created with Sketch.</desc>
    <g id="4.-Atoms" stroke="none" stroke-width="1" fill="none" fill-rule="evenodd">
        <g id="Atoms---Iconography,-Shapes,-Logos" transform="translate(-90.000000, -5823.000000)" fill="#fff">
            <g id="Logos" transform="translate(54.000000, 4670.000000)">
                <g id="Logo-Macmillan" transform="translate(6.000000, 1089.000000)">
                    <g id="Logos/Logo_Macmillan/Black" transform="translate(30.000000, 64.000000)">
                        <g>
                            <path d="M262.033512,2.13900404 C257.820432,2.13900404 256.466082,3.81231216 256.466082,6.74041351 C256.466082,10.5047932 257.970464,18.8698311 256.917802,18.8698311 C253.003976,13.0143797 248.94174,2 243.223466,2 C239.611328,2 237.805258,4.23082703 236.90344,7.15892839 C236.300876,9.25 236,17.4760338 236,19.9856203 C236,26.6781014 237.052662,29.4664473 238.858731,30.3027257 C239.311262,30.5814851 240.514768,31 242.169993,31 C243.825219,31 244.276939,30.7212405 244.577816,30.4424811 C246.082198,28.9089284 245.027914,17.8945487 245.480445,14.2699243 C246.383074,16.7787595 249.092583,23.610996 252.101347,27.0966162 C253.907417,29.1876878 256.014362,30.7212405 259.174781,30.7212405 C264.893865,30.7212405 267,22.7739662 267,12.5966162 C267,3.39379728 264.893865,2.13900404 262.033512,2.13900404" id="Fill-1"></path>
                            <path d="M216.397248,18.7358354 C217.644431,13.1224718 218.279953,10.6867838 219.640878,7.77183237 C220.207996,11.7664515 221.046345,14.9577555 221.727205,18.4117836 C219.798367,18.4117836 217.984066,18.5200532 216.397248,18.7358354 M209.983959,31.715319 C215.165973,31.715319 214.468409,29.6286681 215.066548,26.0232139 C217.558528,25.7385329 220.348782,25.5484932 223.040406,25.453852 C224.435533,29.5332697 226.229154,32 228.919983,32 C231.910677,32 235,30.2926713 235,28.5845855 C235,28.2052632 234.801151,27.5405029 234.102792,26.3078949 C231.212318,21.279793 228.919983,7.80741749 227.325211,2.6846743 C226.528223,0.0279042887 215.863536,0.787305918 213.272132,3.06399655 C208.688257,8.47142071 205.797783,21.4690755 205,26.5925758 C205,29.5332697 205.996633,31.715319 209.983959,31.715319" id="Fill-2"></path>
                            <path d="M160.952724,31.1076359 C162.475353,32.1935994 165.912213,31.9836818 169.160974,31.9836818 C172.207042,31.9836818 174.118841,32.1109964 176.048477,31.3213426 C179.297238,30.0383446 178.992388,27.176039 178.992388,25.7937659 C178.992388,23.7203562 177.820013,22.8920533 173.689943,22.932218 C173.091594,22.9382806 170.522259,22.9738984 170.283082,22.8905377 C167.745367,22.0008509 169.396909,16.5967997 169.396909,5.14606147 C169.396909,2.67782491 167.404843,1 162.7348,1 C160.805164,1 159.180378,1.29630964 158.672835,2.38151527 C158.063946,3.6652711 158.165292,7.6135402 158.063946,12.8455651 C157.759096,26.369713 158.515546,29.3312937 160.952724,31.1076359" id="Fill-3"></path>
                            <path d="M192.159143,3.47520847 C191.670078,1.8704877 190.86591,1.64958587 189.642427,1.2077822 C187.383374,0.751750964 183.645637,0.983136273 183.109799,2.53918376 C181.640963,4.59544285 181.951142,27.3573174 182.249832,29.8980629 C182.351584,31.4174182 182.106231,32 192.868123,32 C197.888424,32 201.881361,30.4364643 202.662552,26.7784797 C203.641503,22.1814752 202.395864,21.7299368 200.146657,21.7299368 L193.62962,21.7299368 C193.62962,18.5616804 192.839403,5.75461585 192.159143,3.47520847" id="Fill-4"></path>
                            <path d="M148.775537,2 C144.222143,2 143.331228,4.05848959 143.331228,6.21525644 C143.331228,7.78388341 143,11.0818854 143,18.5433388 C143,21.5282249 143.108301,24.2327542 143.108301,25.8181416 C143.108301,30.5750657 144.52096,31.9738026 145.064047,32.2533976 C145.932828,32.8133494 147.344696,33 148.973957,33 C153.317863,33 154.513128,32.6266988 154.947124,29.1755671 C155.164517,27.683124 154.715501,14.5474921 153.52735,4.74490674 C153.230905,2.29406994 151.646704,2 148.775537,2" id="Fill-5"></path>
                            <path d="M101,22.9643718 C101,13.497283 102.921913,1.66304399 111.314534,1.66304399 C114.752981,1.66304399 117.887799,3.93493361 119.201644,7.43765062 C121.123557,3.46165477 124.258374,1 128.303273,1 C132.550054,1 135.988502,3.46165477 137.909607,8.57397344 C139.325201,12.4562208 140.437164,20.5972216 139.830712,26.9403676 C139.52789,29.8760573 137.303155,32.8109909 134.067396,32.8109909 C130.72989,32.8109909 130.427068,27.7924207 129.921556,22.7753627 C129.516985,18.5150971 129.415237,16.1479469 129.011474,14.160327 C126.88768,14.160327 126.382168,17.2842697 125.977598,19.5561593 C125.371145,23.3431461 124.056492,26.9403676 120.314415,26.9403676 C116.472205,26.9403676 114.752981,22.8698672 115.056611,16.2424514 C114.65204,15.2958938 114.145721,14.9171195 113.236447,14.9171195 C109.89894,14.9171195 110.809023,25.6157917 109.89894,29.7815527 C109.292488,32.7164863 107.269635,33 105.7531,33 C105.348529,33 104.033876,33 103.326483,32.6212257 C102.517342,32.2424514 101,31.3903983 101,22.9643718" id="Fill-6"></path>
                            <path d="M6.8499588,33 C10.4764549,33 12.1891457,31.009156 12.1891457,27.7847308 C12.1891457,25.8877874 11.2825217,19.4396943 11.2825217,16.5946579 C11.2825217,13.0862591 11.9880312,10.7160264 14.102951,10.7160264 C13.4988031,15.4564918 14.8084605,24.9396943 20.853157,24.9396943 C27.9042303,24.9396943 24.1771769,14.319083 28.4078209,14.319083 C29.9193972,14.319083 30.1205117,15.5511497 30.1205117,20.7671761 L30.1205117,27.1206113 C30.1205117,30.9144981 30.9265785,32.5259535 34.3511557,32.5259535 C38.2801279,32.5259535 39.186752,32.0519069 39.5897853,30.6297673 C40.5977711,27.0259535 41,23.4221396 41,18.1122126 C41,8.06030566 39.0861947,1.70687044 31.5307264,1.70687044 C27.4006396,1.70687044 24.1771769,3.88854468 21.8603383,6.16336225 C20.0470902,1.89694341 17.3272181,0 13.5993604,0 C4.93615351,0 0,10.6206113 0,20.9572491 C0,31.2931296 4.93615351,33 6.8499588,33" id="Fill-7"></path>
                            <path d="M223.742716,43.3230914 C222.876685,43.6049666 221.432754,43.7141279 220.077227,43.6311354 C219.997827,42.95299 220.068223,42.0303533 220.152534,40.9417317 C220.263857,39.4792703 222.7891,39.2998272 224.219934,39.9592806 C224.987739,40.3129331 225.436307,40.9335072 225.380645,41.6520274 C225.319253,42.4520446 224.721708,43.0060752 223.742716,43.3230914 Z M232.694434,53.2851752 C230.316532,50.9950324 228.111345,48.6263832 226.554453,47.0069091 C226.633853,46.9986846 226.879419,46.9912078 227.225668,46.9448517 C228.736721,46.7422305 232.170559,45.7859482 232.170559,40.597799 C232.170559,37.507639 229.593748,35.1531958 224.330439,35.0066506 C220.141893,34.9087045 216.436294,35.8889126 214.718966,38.1940089 C213.107231,40.3525601 213,44.9149014 213,47.8084217 C213,53.105732 215.255119,56 218.102054,56 C219.229204,56 220.034662,55.5087745 220.034662,54.7244585 L220.034662,46.4835333 C220.195917,47.1220517 224.007928,54.3812735 226.800838,55.2635355 C232.063328,56.9316089 233.76756,54.118838 232.694434,53.2851752 Z" id="Fill-8"></path>
                            <path d="M61.1252138,36 C58.5625704,36 57.1878485,37.1774992 57.1255816,39.5939521 C57.0625062,42.3806496 57.3131907,45.5391091 57.1878485,47.5845587 C56.0007356,46.159724 54.3130623,43.7432711 52.3132462,40.1508364 C50.8131819,37.4248347 49.2508509,37.1774992 48.5012231,37.1774992 C43.8134213,37.1774992 44.0010304,48.8849669 44.0010304,51.7346364 C44.0010304,55.6373785 45.2512187,57 47.2510348,57 C48.5012231,57 49.3761932,56.814119 49.9382119,56.5667835 C50.4379637,56.3801438 50.4379637,56.256476 50.4379637,55.6373785 L50.563306,47.7082265 C53.1882163,52.0441851 56.3128784,56.319448 59.3130068,56.319448 C61.4373566,56.319448 64,53.5934463 64,45.602081 C64,36.8679504 62.6252781,36 61.1252138,36" id="Fill-9"></path>
                            <path d="M22.5714199,53.4574359 C21.7277217,55.3510769 19.1950203,56 16.6615153,56 C9.74881523,56 5,52.5102358 5,45.5329845 C5,41.3457229 7.32217868,37.0597946 12.492843,35.5638561 C16.2926987,34.4678971 19.933457,35.1153022 21.1998078,36.2621125 C22.5714199,37.5075895 22.5714199,40.2490049 20.6196649,40.5981331 C15.2899032,40.5981331 12.492843,41.4451485 12.492843,45.6817434 C12.492843,51.6632204 20.1970123,49.5198768 22.5714199,49.9183384 C22.8711336,49.9661538 23.3636926,51.6138871 22.5714199,53.4574359" id="Fill-10"></path>
                            <path d="M82,52.8667114 C82,55.0495691 80.3271461,56 77.9217716,56 C71.2813138,56 66,52.7234753 66,46.029428 C66,44.1308043 67.0979846,39.52487 71.2813138,37.4837562 C74.7846728,35.7746219 78.4974372,36.0111106 79.5428714,36.0111106 C81.2165215,36.0111106 81.7388405,36.6765614 81.7388405,37.4837562 C81.7388405,38.6229305 81.3072904,41.3436694 77.6996268,41.3436694 C74.6660363,41.3436694 72.4485693,42.35229 73.163573,47.5960723 C73.4159741,49.4469506 74.6278179,50.7771063 76.980642,50.7771063 C80.5365514,50.7771063 82,51.7267911 82,52.8667114" id="Fill-11"></path>
                            <path d="M202.264676,50.9578846 C205.215898,50.9578846 206.152358,48.3276631 206.152358,46.3983812 C206.152358,43.5485973 205.684128,40.3487208 202.545937,40.3487208 C199.689812,40.4362439 198.425348,42.1897249 198.425348,45.7849647 C198.425348,47.143837 198.705803,50.9578846 202.264676,50.9578846 Z M212,46.8420331 C212,53.7789972 206.44329,57 201.785969,57 C194.80039,57 193,50.8552713 193,45.9502023 C193,38.0225667 196.440405,35 203.002884,35 C209.724126,35 212,41.2435695 212,46.8420331 Z" id="Fill-12"></path>
                            <path d="M237.329254,35.0061844 C241.593781,35.0061844 249.291928,35.0061844 251.164884,36.0060736 C252.100158,36.5052467 251.996596,38.2056755 251.996596,39.1052672 C251.996596,41.7045162 248.667342,41.1035025 247.106679,41.5046927 C245.859112,41.8040422 245.754747,42.0038657 245.651184,43.0037549 C245.338891,46.4030696 245.651184,50.0022078 245.651184,52.5011593 C245.651184,54.7995157 245.13016,55.5000554 244.298449,55.8001765 C243.986156,55.8997025 243.5703,56 242.946517,56 C241.281488,56 240.033118,55.3002319 239.512897,54.1005191 C238.472455,51.6015676 238.576821,44.4040627 239.097042,41.8040422 C235.144004,41.3040976 234,40.8049245 234,38.3052015 C234,37.8052569 234,36.1063711 234.415856,35.506129 C234.831711,34.9066584 235.872153,35.0061844 237.329254,35.0061844" id="Fill-13"></path>
                            <path d="M182.296041,45.3519545 C182.193894,44.6115422 182.193894,43.5925515 182.193894,42.3888273 C182.193894,40.9080027 182.090099,40.6294244 183.225248,40.6294244 C184.877722,40.6294244 186.115842,41.4629424 186.115842,42.8521392 C186.115842,44.5184364 184.567986,45.3519545 182.296041,45.3519545 M182.709571,36 C177.652474,36 176,37.7594029 176,41.4629424 C176,48.0365034 176,54.703909 177.342738,55.6297938 C177.858415,56 179.407095,56 180.232508,56 C181.161715,56 181.677393,55.8145275 181.987129,55.4443213 C182.399835,54.8886426 182.709571,53.5001847 182.709571,49.6104338 C188.489935,49.6104338 192,46.462573 192,42.7597724 C192,39.6111727 189.006436,36 182.709571,36" id="Fill-14"></path>
                            <path d="M153.066989,35 C149.719905,35 150.211869,39.7906678 150.211869,44.9797975 C150.211869,48.9720207 148.833426,49.8700808 147.454984,49.8700808 C144.106327,49.8700808 143.90907,47.2755159 143.90907,44.9797975 C143.90907,42.585224 144.598291,35.8988205 142.136899,35.8988205 C139.674721,35.8988205 138,37.3960943 138,44.880182 C138,51.5665855 141.348656,55.5580483 146.962234,55.958031 C151.98404,56.3564929 155.82466,53.9619194 155.82466,46.8755332 C155.82466,44.2809683 156.219175,36.5968893 155.82466,35.8988205 C155.529167,35.2996068 155.430932,35 153.066989,35" id="Fill-15"></path>
                            <path d="M92.1154132,51.3029643 C90.8463249,51.3029643 90.064448,51.3966801 89.4782353,51.0210672 C88.9902443,50.7391701 88.8920225,49.9879442 88.7945802,48.4839931 C89.6738994,48.5784587 90.7481031,48.5784587 91.7248645,48.5784587 C95.8275744,48.5784587 95.8275744,47.4508702 95.8275744,45.7602372 C95.8275744,43.9751387 94.362822,43.9751387 92.213635,43.9751387 C90.6506608,43.9751387 89.5756775,44.0696043 88.7945802,44.3515014 C88.8920225,42.7538345 88.9902443,41.1569173 89.1851289,40.6868389 C91.3343159,40.7813044 91.4325377,40.8750202 92.7998478,40.8750202 C96.4137872,40.8750202 96.6086718,39.3718188 96.6086718,37.6811859 C96.6086718,36.6473132 95.6319103,36.3654161 94.4602643,36.2717003 C91.8230864,36.083519 87.1341637,35.3315434 84.7900921,37.5867203 C82.5426833,39.7481815 82.9340115,48.8603558 83.2271179,51.3029643 C83.7151088,55.5306713 87.231606,56 91.0412095,56 C93.0929542,56 97,55.6243871 97,53.5573915 C97,51.9604743 95.5344681,51.3029643 92.1154132,51.3029643" id="Fill-16"></path>
                            <path d="M31.7586178,46.2800671 C32.2563824,44.2237554 32.8533824,42.3546522 33.7488823,41.1396606 C34.1466176,42.2614208 34.4451176,44.130524 34.8436468,46.0936043 C33.8481177,46.0936043 32.8533824,46.1868357 31.7586178,46.2800671 M33.351147,36 C31.7586178,36 30.2669118,36.3736715 28.9728826,37.8683573 C26.8849705,40.2983405 24,50.2062279 24,53.1955995 C24,55.0654484 24.9947353,56 26.7857352,56 C28.3766766,56 30.3661472,55.6263285 30.6646471,53.4767854 C30.7638825,52.821928 30.8639118,51.9806079 31.0631764,51.1392877 C32.6541177,50.7656163 34.245853,50.6723849 35.8375883,50.6723849 C36.334559,52.541488 36.9323528,54.1308969 37.6285881,54.9714712 C38.1255589,55.5323513 38.8217942,55.7195599 39.3195588,55.7195599 C40.911294,55.7195599 42.5030293,55.0654484 43,54.5977997 C42.6022647,52.6354652 37.4293235,37.6818945 37.2308528,37.1210144 C36.9323528,36.3736715 34.8436468,36 33.351147,36" id="Fill-17"></path>
                            <path d="M104.899135,45.1660817 C104.899135,44.7034916 104.899135,44.3332718 104.99969,43.962313 C105.399512,41.4624053 106.599778,40.4433771 107.999557,40.4433771 C109.199823,40.4433771 109.899712,40.9990763 109.899712,41.9257343 C109.899712,43.962313 107.499978,44.6103824 104.899135,45.1660817 M109.899712,47.6667282 C112.299446,47.2965084 114.999246,45.2591908 114.999246,41.5547755 C114.999246,38.4067984 112.19969,36 107.999557,36 C100.49949,36 98,40.0731572 98,47.0186588 C98,49.9811565 99.0997118,53.1298725 99.9999113,54.5183817 C100.6998,55.6297802 101.499446,55.7221504 102.399645,55.7221504 C103.399601,55.7221504 104.09949,55.6297802 104.499313,54.9817107 C104.800177,54.4260115 104.800177,51.9253649 104.800177,49.4254572 C105.499268,50.2590061 107.999557,52.7589137 110.199778,54.4260115 C111.799867,55.6297802 112.499756,56 113.099091,56 C114.000089,56 116,54.7962313 116,53.314613 C116,52.6665435 115.599379,52.2032145 114.999246,51.555145 C113.799778,50.2590061 112.099933,49.0559764 109.899712,47.6667282" id="Fill-18"></path>
                            <path d="M163.532466,45.4550601 L163.532466,43.4774143 C163.532466,41.5012712 163.834382,40.088667 165.847429,40.088667 C166.953922,40.088667 168.161589,40.841555 168.161589,42.4420055 C168.161589,43.666012 167.357013,44.5128231 163.532466,45.4550601 M164.841307,35.0040434 C159.810698,34.9101203 158,36.4166476 158,43.289568 L158,52.9876967 C158,54.8699167 158.301114,56 161.72257,56 C163.331723,56 163.63364,54.2117032 163.63364,52.9876967 L163.63364,49.4096004 C164.337845,50.4450092 165.343967,50.4450092 167.658127,49.7860444 C170.777667,48.9384819 174.097949,47.432706 173.997578,42.913124 C174.097949,38.2996189 171.079584,35.0979666 164.841307,35.0040434" id="Fill-19"></path>
                            <path d="M87.7834698,31 C93.7391075,31 99,28.6297589 99,23.7001415 C99,22.9413315 98.7029311,21.9933864 98.3052548,21.7089272 C97.5114867,21.1400088 96.4190652,21.2345763 94.7317138,21.5197921 C93.1441774,21.7089272 91.9519409,22.0879539 89.073145,22.0879539 C84.8048587,22.0879539 81.8270399,18.4966566 81.8270399,14.7994436 C81.8270399,10.3441771 85.9963031,9.2063403 90.1655664,9.2063403 C95.9231582,9.2063403 97.749934,9.12690355 98.2450489,7.23555252 C99.5497755,2.25297735 94.7317138,0 87.0879324,0 C79.1470821,0 72,6.16202167 72,14.4090687 C72,25.8797345 80.6355955,31 87.7834698,31" id="Fill-20"></path>
                            <path d="M6.85035001,33 C10.4761074,33 12.1892978,31.0089208 12.1892978,27.7842957 C12.1892978,25.8878136 11.2824565,19.4393203 11.2824565,16.5945971 C11.2824565,13.0861808 11.9883135,10.7159565 14.1034726,10.7159565 C13.4989117,15.4564051 14.8085257,24.9395725 20.8533305,24.9395725 C27.9046648,24.9395725 24.1776113,14.3189699 28.4079296,14.3189699 C29.9193318,14.3189699 30.1203161,15.5517589 30.1203161,20.7667064 L30.1203161,27.1206027 C30.1203161,30.9135669 30.9266652,32.5262579 34.3514383,32.5262579 C38.28028,32.5262579 39.1863174,32.0517589 39.5898939,30.6290189 C40.5972274,27.0252488 41,23.4222355 41,18.1119341 C41,8.06042746 39.0866291,1.70653121 31.5304222,1.70653121 C27.4005961,1.70653121 24.1776113,3.88831812 21.8606639,6.16318855 C20.0469813,1.89648214 17.3272613,0 13.5994039,0 C4.93617522,0 0,10.6206027 0,20.9566573 C0,31.292712 4.93617522,33 6.85035001,33" id="Fill-21"></path>
                            <path d="M131.521492,36.0287566 C127.064213,36.1726967 124.155019,39.0173693 124.328525,41.9629483 C124.649392,47.423028 130.835391,47.972078 130.952646,49.9657231 C130.998598,50.7455225 130.430544,51.2092472 129.441006,51.2611843 C127.659996,51.3531873 126.489822,50.022854 125.797383,50.058468 C125.203185,50.0888884 124.044102,52.3214444 124.006866,53.3668653 C123.860297,54.2431194 126.060415,56.2152477 130.611973,55.9807885 C134.767399,55.7656202 137.191727,53.1205347 136.988115,49.6541001 C136.732214,45.3217988 130.590582,43.8133952 130.467781,41.7336829 C130.437675,41.2135693 130.911449,40.8418476 132.099053,40.780265 C133.880063,40.688262 134.80622,41.2491833 135.993824,41.1876007 C136.58723,41.1571804 136.946918,40.5302246 136.875614,39.3163789 C136.753605,37.2366666 134.78166,35.7742645 131.521492,36.0287566" id="Fill-22"></path>
                            <path d="M57.4078094,7.08670909 C57.9567999,8.8835529 59.7672485,16.5507885 60.0323905,17.6887645 C60.0323905,17.6887645 56.3285349,17.7978236 55.5233488,17.9813439 C55.5233488,17.9813439 56.5489444,10.408877 57.088175,8.17278797 L57.4078094,7.08670909 Z M47.7179244,30.5607548 C54.0675075,30.9037271 54.3627423,25.31012 54.9711051,24.9475923 C55.9885674,24.3398694 61.1279315,24.5843124 61.1279315,24.5843124 C62.5959727,28.6172452 62.2779648,31 66.6389824,31 C68.8203045,31 71,29.862024 71,26.9670672 C71,22.0120203 68.3014069,9.51007901 65.6459197,2.27757585 C65.1709413,1.40359825 64.8513068,1.1922491 63.9208696,0.829721384 C61.1523311,0.0505124332 54.5091398,-0.706884684 50.5482753,1.18397565 C49.5983184,1.62322085 49.3795356,1.84284345 48.9053705,2.72058171 C46.7159152,7.6733722 44.5443529,17.9828482 44.0693745,24.9506008 C43.8318853,28.9835336 44.0693745,30.5607548 46.9623509,30.5607548 L47.7179244,30.5607548 Z" id="Fill-23"></path>
                        </g>
                    </g>
                </g>
            </g>
        </g>
    </g>
</svg>
