<svg version="1.1" id="Layer_1" xmlns="http://www.w3.org/2000/svg" xmlns:xlink="http://www.w3.org/1999/xlink" x="0" y="0" width="737.59" height="209.46" viewBox="0 0 737.59 209.46" enable-background="new 0 0 737.588 209.461" xml:space="preserve"><rect x="58.68" y="2.39" transform="matrix(0.9997 -0.0251 0.0251 0.9997 -2.2184 3.4083)" fill="#FFFFFF" stroke="#010202" stroke-miterlimit="10" width="152.35" height="175.62"/><rect x="68.66" y="11.23" transform="matrix(0.9997 -0.025 0.025 0.9997 -1.771 3.3867)" fill="#010202" width="131.49" height="122.43"/><rect x="19.75" y="17.29" transform="matrix(0.9697 0.2442 -0.2442 0.9697 28.5749 -20.2465)" fill="#FFFFFF" stroke="#010202" stroke-miterlimit="10" width="152.35" height="175.62"/><polygon fill="#010202" points="149.38 163.78 21.04 131.46 51.14 11.95 179.48 44.28 "/><path fill="#010202" d="M296.14 72.46l-13.51-21.25h-11.87v21.25h-5.05V22.85h17.6c2.68 0 5.09 0.32 7.22 0.96 2.13 0.64 3.92 1.55 5.39 2.73 1.47 1.18 2.59 2.63 3.38 4.35 0.79 1.72 1.18 3.68 1.18 5.89 0 1.55-0.24 3.08-0.73 4.59 -0.49 1.51-1.25 2.9-2.27 4.16 -1.02 1.26-2.34 2.33-3.96 3.21 -1.61 0.88-3.55 1.48-5.8 1.83l14.43 21.9H296.14zM295.32 36.8c0-1.61-0.28-3.04-0.85-4.26 -0.57-1.23-1.4-2.26-2.49-3.1 -1.09-0.84-2.4-1.47-3.92-1.89 -1.52-0.42-3.25-0.63-5.19-0.63h-12.11v20.3h12.35c2.12 0 3.95-0.27 5.49-0.82s2.81-1.28 3.79-2.2c0.98-0.92 1.71-2.02 2.2-3.31C295.07 39.6 295.32 38.24 295.32 36.8zM315.17 55.5c0 1.98 0.24 3.83 0.73 5.54 0.49 1.72 1.25 3.2 2.27 4.43s2.32 2.22 3.89 2.95c1.57 0.73 3.45 1.09 5.63 1.09 2.77 0 5.11-0.6 7.01-1.81 1.9-1.2 3.22-2.82 3.98-4.84l4.5 0.79c-0.39 1-0.96 2.06-1.71 3.19 -0.75 1.13-1.74 2.15-2.97 3.07 -1.23 0.92-2.73 1.69-4.52 2.32 -1.79 0.63-3.94 0.94-6.46 0.94 -2.64 0-5.03-0.4-7.16-1.21 -2.14-0.81-3.95-2.01-5.44-3.62 -1.49-1.6-2.64-3.58-3.46-5.92 -0.82-2.34-1.23-5.06-1.23-8.15 0-3.43 0.5-6.32 1.48-8.67 0.99-2.34 2.29-4.24 3.91-5.68 1.62-1.44 3.45-2.47 5.51-3.09 2.06-0.61 4.14-0.92 6.26-0.92 2.84 0 5.3 0.46 7.37 1.37 2.07 0.91 3.77 2.19 5.1 3.84 1.33 1.65 2.31 3.6 2.95 5.85 0.64 2.25 0.96 4.73 0.96 7.44V55.5H315.17zM327.39 39.57c-1.52 0-3 0.22-4.42 0.67 -1.42 0.44-2.68 1.16-3.79 2.15s-2.01 2.27-2.71 3.84c-0.71 1.57-1.1 3.48-1.19 5.73h23.71c-0.14-1.91-0.46-3.63-0.97-5.15 -0.51-1.52-1.24-2.82-2.18-3.89 -0.94-1.07-2.11-1.89-3.5-2.47C330.95 39.86 329.3 39.57 327.39 39.57zM369.48 72.46h-5.66l-14.06-35.92h5.12l9.31 25.04c0.18 0.48 0.39 1.04 0.63 1.69 0.24 0.65 0.48 1.3 0.72 1.96s0.46 1.3 0.67 1.93c0.21 0.63 0.36 1.19 0.48 1.69 0.14-0.45 0.31-0.99 0.51-1.62 0.21-0.62 0.43-1.27 0.67-1.93 0.24-0.66 0.48-1.31 0.72-1.94s0.46-1.21 0.67-1.71l9.62-25.11h5.05L369.48 72.46zM394.97 55.5c0 1.98 0.24 3.83 0.73 5.54s1.25 3.2 2.27 4.43 2.32 2.22 3.89 2.95c1.57 0.73 3.45 1.09 5.63 1.09 2.78 0 5.11-0.6 7.01-1.81 1.9-1.2 3.22-2.82 3.97-4.84l4.5 0.79c-0.39 1-0.95 2.06-1.71 3.19 -0.75 1.13-1.74 2.15-2.97 3.07 -1.23 0.92-2.73 1.69-4.52 2.32 -1.79 0.63-3.94 0.94-6.46 0.94 -2.64 0-5.03-0.4-7.16-1.21s-3.95-2.01-5.44-3.62 -2.64-3.58-3.46-5.92c-0.82-2.34-1.23-5.06-1.23-8.15 0-3.43 0.49-6.32 1.48-8.67 0.99-2.34 2.29-4.24 3.91-5.68 1.61-1.44 3.45-2.47 5.51-3.09 2.06-0.61 4.15-0.92 6.26-0.92 2.84 0 5.3 0.46 7.37 1.37 2.07 0.91 3.77 2.19 5.1 3.84 1.33 1.65 2.31 3.6 2.95 5.85 0.64 2.25 0.96 4.73 0.96 7.44V55.5H394.97zM407.18 39.57c-1.52 0-3 0.22-4.42 0.67 -1.42 0.44-2.68 1.16-3.79 2.15s-2.01 2.27-2.71 3.84 -1.1 3.48-1.19 5.73h23.71c-0.14-1.91-0.46-3.63-0.97-5.15 -0.51-1.52-1.24-2.82-2.18-3.89 -0.94-1.07-2.11-1.89-3.5-2.47C410.74 39.86 409.09 39.57 407.18 39.57zM460.91 72.46V51.41c0-1.68-0.18-3.25-0.53-4.69 -0.35-1.44-0.93-2.69-1.72-3.75 -0.8-1.06-1.83-1.88-3.1-2.46 -1.27-0.58-2.83-0.87-4.67-0.87 -1.68 0-3.23 0.33-4.64 0.99s-2.63 1.56-3.65 2.7c-1.02 1.14-1.82 2.48-2.39 4.03 -0.57 1.55-0.85 3.21-0.85 4.98v20.13h-4.84V44.58c0-0.77-0.01-1.61-0.02-2.51 -0.01-0.9-0.03-1.73-0.05-2.51 -0.02-0.77-0.04-1.44-0.05-2 -0.01-0.56-0.02-0.9-0.02-1.04h4.4c0 0.09 0.02 0.46 0.07 1.09 0.02 0.66 0.05 1.39 0.09 2.2 0.03 0.81 0.07 1.62 0.1 2.42s0.05 1.43 0.05 1.86h0.14c1.5-2.77 3.34-4.83 5.51-6.17 2.17-1.34 4.78-2.01 7.83-2.01 2.43 0 4.49 0.38 6.16 1.14 1.67 0.76 3.02 1.8 4.04 3.1 1.02 1.31 1.76 2.84 2.22 4.59 0.46 1.75 0.68 3.61 0.68 5.56v22.14H460.91zM510.31 44.21v27.23c0 5.53-1.44 9.75-4.33 12.67s-7.06 4.38-12.52 4.38c-2.32 0-4.36-0.22-6.12-0.65 -1.76-0.43-3.28-1.05-4.55-1.84 -1.27-0.8-2.31-1.74-3.12-2.83s-1.4-2.33-1.79-3.72l4.78-0.78c0.61 1.87 1.83 3.37 3.65 4.5 1.82 1.14 4.23 1.71 7.23 1.71 1.87 0 3.53-0.27 5-0.82s2.72-1.36 3.75-2.44c1.03-1.08 1.83-2.45 2.39-4.11 0.56-1.66 0.84-3.6 0.84-5.83 0-0.59 0.01-1.25 0.03-1.98 0.02-0.7 0.03-1.39 0.03-2.05v-2.29H505.5c-1.34 2.48-3.12 4.36-5.34 5.63 -2.22 1.27-5.07 1.91-8.55 1.91 -2.59 0-4.84-0.46-6.75-1.38 -1.91-0.92-3.49-2.21-4.73-3.85 -1.24-1.65-2.17-3.59-2.78-5.83s-0.92-4.68-0.92-7.32c0-2.71 0.32-5.19 0.96-7.45 0.64-2.26 1.62-4.22 2.95-5.87 1.33-1.65 2.99-2.94 4.98-3.87 1.99-0.93 4.32-1.4 6.98-1.4 3.12 0 5.81 0.65 8.07 1.96 2.26 1.31 3.97 3.08 5.13 5.31h0.07c0-0.64 0.01-1.33 0.03-2.08s0.06-1.45 0.1-2.12c0.05-0.66 0.09-1.22 0.14-1.67 0.05-0.45 0.07-0.72 0.07-0.78h4.54c0 0.14-0.01 0.44-0.02 0.9 -0.01 0.47-0.03 1.04-0.05 1.72 -0.02 0.68-0.04 1.46-0.05 2.34C510.32 42.37 510.31 43.28 510.31 44.21zM505.64 54.27c0-2.68-0.33-4.96-0.99-6.82 -0.66-1.86-1.54-3.38-2.64-4.55 -1.1-1.17-2.39-2.02-3.85-2.54 -1.47-0.52-3.01-0.78-4.62-0.78 -3.91 0-6.91 1.29-9.01 3.87 -2.09 2.58-3.14 6.27-3.14 11.07 0 2.25 0.24 4.28 0.73 6.09s1.23 3.35 2.24 4.62c1 1.27 2.26 2.26 3.77 2.95 1.51 0.69 3.29 1.04 5.34 1.04 1.62 0 3.16-0.26 4.62-0.78 1.47-0.52 2.76-1.37 3.89-2.54 1.13-1.17 2.02-2.71 2.68-4.62C505.31 59.35 505.64 57.02 505.64 54.27zM526.34 55.5c0 1.98 0.24 3.83 0.73 5.54s1.25 3.2 2.27 4.43 2.32 2.22 3.89 2.95c1.57 0.73 3.45 1.09 5.63 1.09 2.78 0 5.11-0.6 7.01-1.81 1.9-1.2 3.22-2.82 3.97-4.84l4.5 0.79c-0.39 1-0.95 2.06-1.71 3.19 -0.75 1.13-1.74 2.15-2.97 3.07 -1.23 0.92-2.73 1.69-4.52 2.32 -1.79 0.63-3.94 0.94-6.46 0.94 -2.64 0-5.03-0.4-7.16-1.21s-3.95-2.01-5.44-3.62 -2.64-3.58-3.46-5.92c-0.82-2.34-1.23-5.06-1.23-8.15 0-3.43 0.49-6.32 1.48-8.67 0.99-2.34 2.29-4.24 3.91-5.68 1.61-1.44 3.45-2.47 5.51-3.09 2.06-0.61 4.15-0.92 6.26-0.92 2.84 0 5.3 0.46 7.37 1.37 2.07 0.91 3.77 2.19 5.1 3.84 1.33 1.65 2.31 3.6 2.95 5.85 0.64 2.25 0.96 4.73 0.96 7.44V55.5H526.34zM538.56 39.57c-1.52 0-3 0.22-4.42 0.67 -1.42 0.44-2.68 1.16-3.79 2.15s-2.01 2.27-2.71 3.84 -1.1 3.48-1.19 5.73h23.71c-0.14-1.91-0.46-3.63-0.97-5.15 -0.51-1.52-1.24-2.82-2.18-3.89 -0.94-1.07-2.11-1.89-3.5-2.47C542.12 39.86 540.47 39.57 538.56 39.57zM621.9 37.52c0 2.02-0.35 3.95-1.04 5.78 -0.69 1.83-1.73 3.44-3.12 4.81 -1.39 1.38-3.13 2.48-5.24 3.31 -2.1 0.83-4.54 1.25-7.32 1.25h-13v19.79h-5.05V22.85h17.6c2.84 0 5.33 0.35 7.47 1.06s3.93 1.69 5.37 2.97c1.44 1.27 2.52 2.82 3.24 4.62S621.9 35.31 621.9 37.52zM616.75 37.55c0-3.37-1.05-5.98-3.15-7.85 -2.1-1.86-5.25-2.8-9.43-2.8h-11.97v21.73h12.25c2.12 0 3.95-0.28 5.49-0.84 1.55-0.56 2.83-1.34 3.84-2.34 1.01-1 1.76-2.17 2.25-3.51C616.5 40.61 616.75 39.15 616.75 37.55zM666.25 54.51c0 2.73-0.37 5.23-1.13 7.51 -0.75 2.27-1.88 4.24-3.38 5.89 -1.5 1.65-3.37 2.94-5.59 3.87 -2.23 0.93-4.82 1.4-7.78 1.4 -2.82 0-5.32-0.45-7.5-1.36 -2.18-0.91-4.01-2.19-5.48-3.85 -1.47-1.66-2.58-3.63-3.34-5.92s-1.14-4.79-1.14-7.52c0-2.68 0.36-5.15 1.07-7.4 0.72-2.25 1.8-4.21 3.26-5.87 1.46-1.66 3.29-2.96 5.49-3.91 2.21-0.94 4.81-1.42 7.81-1.42 3.16 0 5.87 0.47 8.12 1.4 2.25 0.93 4.08 2.22 5.48 3.87 1.4 1.65 2.43 3.61 3.1 5.87C665.91 49.32 666.25 51.8 666.25 54.51zM661.2 54.51c0-5.12-1.05-8.89-3.16-11.31s-5.21-3.63-9.33-3.63c-4.14 0-7.32 1.24-9.53 3.72 -2.22 2.48-3.33 6.22-3.33 11.22 0 2.55 0.3 4.75 0.9 6.62 0.6 1.87 1.46 3.41 2.56 4.64 1.1 1.23 2.41 2.14 3.92 2.75 1.51 0.6 3.19 0.9 5.03 0.9 4.12 0 7.3-1.21 9.55-3.62C660.07 63.39 661.2 59.63 661.2 54.51zM691.73 39.84c-1.61 0-3.03 0.4-4.25 1.21 -1.22 0.81-2.23 1.88-3.04 3.21s-1.41 2.87-1.81 4.61c-0.4 1.74-0.6 3.54-0.6 5.41v18.18h-4.84v-27.02c0-0.8-0.01-1.68-0.02-2.66s-0.03-1.91-0.05-2.8c-0.02-0.89-0.04-1.65-0.05-2.29 -0.01-0.64-0.02-1.02-0.02-1.16h4.4c0 0.09 0.02 0.48 0.07 1.16 0.02 0.71 0.06 1.49 0.1 2.35 0.02 0.89 0.05 1.77 0.09 2.66 0.03 0.89 0.05 1.56 0.05 2.01h0.14c0.48-1.48 1.02-2.77 1.64-3.87 0.61-1.1 1.35-2.01 2.22-2.73 0.86-0.72 1.85-1.26 2.95-1.64 1.1-0.37 2.37-0.56 3.8-0.56 1.05 0 1.88 0.13 2.49 0.38v3.96c-0.41-0.16-0.89-0.27-1.45-0.32C693 39.87 692.39 39.84 691.73 39.84zM729.29 72.46V51.41c0-1.68-0.18-3.25-0.53-4.69 -0.35-1.44-0.93-2.69-1.72-3.75 -0.8-1.06-1.83-1.88-3.1-2.46 -1.27-0.58-2.83-0.87-4.67-0.87 -1.68 0-3.23 0.33-4.64 0.99s-2.63 1.56-3.65 2.7c-1.02 1.14-1.82 2.48-2.39 4.03 -0.57 1.55-0.85 3.21-0.85 4.98v20.13h-4.84V44.58c0-0.77-0.01-1.61-0.02-2.51 -0.01-0.9-0.03-1.73-0.05-2.51 -0.02-0.77-0.04-1.44-0.05-2 -0.01-0.56-0.02-0.9-0.02-1.04h4.4c0 0.09 0.02 0.46 0.07 1.09 0.02 0.66 0.05 1.39 0.09 2.2 0.03 0.81 0.07 1.62 0.1 2.42s0.05 1.43 0.05 1.86h0.14c1.5-2.77 3.34-4.83 5.51-6.17 2.17-1.34 4.78-2.01 7.83-2.01 2.43 0 4.49 0.38 6.16 1.14 1.67 0.76 3.02 1.8 4.04 3.1 1.02 1.31 1.76 2.84 2.22 4.59 0.46 1.75 0.68 3.61 0.68 5.56v22.14H729.29z"/><path fill="#EC6234" stroke="#EB6233" stroke-width="2" stroke-miterlimit="10" d="M264.98 172.18V90.38h13.05v33.98h44.73V90.38h12.72v81.8h-12.71v-37.02H278.03v37.02H264.98zM366.52 144.72c0 2.93 0.33 5.61 0.99 8.05 0.66 2.44 1.69 4.54 3.09 6.3 1.41 1.76 3.21 3.13 5.4 4.11 2.19 0.98 4.83 1.46 7.9 1.46 2.03 0 3.93-0.19 5.71-0.56 1.78-0.37 3.39-0.95 4.84-1.72 1.44-0.77 2.68-1.71 3.71-2.81 1.03-1.1 1.81-2.39 2.34-3.85l10.92 2.19c-0.71 1.76-1.75 3.55-3.12 5.37s-3.16 3.47-5.37 4.95c-2.21 1.48-4.89 2.7-8.02 3.66 -3.13 0.96-6.84 1.44-11.11 1.44 -9.79 0-17.26-2.6-22.42-7.79 -5.16-5.19-7.74-12.99-7.74-23.38 0-5.77 0.85-10.62 2.56-14.54 1.71-3.92 3.97-7.07 6.78-9.45 2.81-2.38 6.04-4.08 9.68-5.09 3.64-1.01 7.39-1.52 11.25-1.52 5.1 0 9.49 0.78 13.17 2.34 3.68 1.56 6.7 3.74 9.06 6.56 2.36 2.81 4.11 6.18 5.23 10.1s1.69 8.24 1.69 12.97v1.24H366.52zM401.01 136.79c-0.19-2.62-0.66-4.98-1.41-7.06 -0.75-2.08-1.81-3.84-3.18-5.29 -1.37-1.44-3.06-2.55-5.06-3.32 -2.01-0.77-4.38-1.15-7.12-1.15 -2.14 0-4.23 0.27-6.27 0.82 -2.04 0.54-3.88 1.46-5.51 2.76 -1.63 1.29-2.97 3.02-4.02 5.18 -1.05 2.16-1.65 4.85-1.8 8.07H401.01zM429.76 172.18V87.73h12.21v84.45H429.76zM522.3 142.14c0 4.58-0.53 8.78-1.6 12.6 -1.07 3.83-2.69 7.12-4.87 9.87 -2.18 2.76-4.93 4.9-8.27 6.41 -3.34 1.52-7.26 2.28-11.76 2.28 -2.25 0-4.43-0.23-6.53-0.7 -2.1-0.47-4.06-1.18-5.88-2.14 -1.82-0.96-3.47-2.15-4.95-3.57 -1.48-1.43-2.73-3.09-3.74-5.01h-0.34c0.11 1.54 0.19 2.81 0.23 3.83 0.04 1.01 0.06 2.11 0.08 3.29 0.02 1.18 0.03 2.32 0.03 3.4v26.22H462.5v-72.86c0-1.5-0.01-2.94-0.03-4.33 -0.02-1.39-0.06-2.65-0.11-3.8 -0.06-1.14-0.16-2.77-0.31-4.87h11.81c0.19 1.69 0.31 3.07 0.37 4.14 0.06 1.07 0.11 2.19 0.17 3.38 0.06 1.18 0.08 2.24 0.08 3.18h0.23c4.31-8.06 11.68-12.1 22.11-12.1 4.39 0 8.19 0.77 11.39 2.31 3.21 1.54 5.85 3.67 7.93 6.39 2.08 2.72 3.63 5.96 4.64 9.73S522.3 137.67 522.3 142.14zM509.48 142.14c0-7.01-1.43-12.42-4.3-16.23s-7.19-5.71-12.97-5.71c-2.25 0-4.44 0.37-6.55 1.1 -2.12 0.73-4 1.97-5.65 3.71s-2.98 4.04-3.99 6.89c-1.01 2.85-1.52 6.41-1.52 10.69 0 4.16 0.5 7.65 1.49 10.47 0.99 2.81 2.31 5.07 3.94 6.78s3.51 2.92 5.63 3.63c2.12 0.71 4.3 1.07 6.55 1.07 5.51 0 9.79-1.85 12.83-5.54C507.96 155.29 509.48 149.68 509.48 142.14zM539.18 172.18V87.73h12.21v84.45H539.18zM571.92 98.25V87.73h12.1v10.52H571.92zM571.92 172.18v-59.41h12.21v59.41H571.92zM648.54 172.18v-33.53c0-2.7-0.27-5.14-0.81-7.31 -0.54-2.17-1.4-4.03-2.56-5.57 -1.16-1.54-2.66-2.73-4.5-3.57 -1.84-0.84-4.05-1.27-6.64-1.27 -2.51 0-4.82 0.48-6.92 1.44 -2.1 0.96-3.91 2.3-5.43 4.02 -1.52 1.73-2.7 3.77-3.54 6.13 -0.84 2.36-1.27 4.95-1.27 7.76v31.9h-12.21v-45.96c0-1.27-0.01-2.63-0.03-4.08 -0.02-1.44-0.06-2.8-0.11-4.08 -0.06-1.27-0.16-3.04-0.31-5.29h11.59c0.15 2.29 0.26 4.07 0.34 5.35 0.07 1.27 0.14 2.57 0.2 3.88 0.06 1.31 0.08 2.38 0.08 3.21h0.23c2.4-4.76 5.42-8.23 9.06-10.41 3.64-2.17 7.95-3.26 12.94-3.26 4.13 0 7.6 0.62 10.41 1.86 2.81 1.24 5.09 2.93 6.84 5.06s3 4.66 3.77 7.57c0.77 2.91 1.15 6.03 1.15 9.37v36.79H648.54zM690.06 144.72c0 2.93 0.33 5.61 0.98 8.05 0.66 2.44 1.69 4.54 3.09 6.3 1.41 1.76 3.21 3.13 5.4 4.11 2.19 0.98 4.83 1.46 7.9 1.46 2.03 0 3.93-0.19 5.71-0.56 1.78-0.37 3.39-0.95 4.84-1.72 1.44-0.77 2.68-1.71 3.71-2.81 1.03-1.1 1.81-2.39 2.34-3.85l10.92 2.19c-0.71 1.76-1.75 3.55-3.12 5.37s-3.16 3.47-5.37 4.95c-2.21 1.48-4.89 2.7-8.02 3.66 -3.13 0.96-6.84 1.44-11.11 1.44 -9.79 0-17.26-2.6-22.42-7.79 -5.16-5.19-7.73-12.99-7.73-23.38 0-5.77 0.85-10.62 2.56-14.54 1.71-3.92 3.97-7.07 6.78-9.45 2.81-2.38 6.04-4.08 9.68-5.09 3.64-1.01 7.39-1.52 11.25-1.52 5.1 0 9.49 0.78 13.17 2.34 3.68 1.56 6.7 3.74 9.06 6.56 2.36 2.81 4.11 6.18 5.23 10.1s1.69 8.24 1.69 12.97v1.24H690.06zM724.55 136.79c-0.19-2.62-0.66-4.98-1.41-7.06 -0.75-2.08-1.81-3.84-3.18-5.29 -1.37-1.44-3.06-2.55-5.06-3.32 -2.01-0.77-4.38-1.15-7.12-1.15 -2.14 0-4.23 0.27-6.27 0.82 -2.04 0.54-3.88 1.46-5.51 2.76 -1.63 1.29-2.97 3.02-4.02 5.18 -1.05 2.16-1.65 4.85-1.8 8.07H724.55z"/></svg>