<svg id="Layer_1" data-name="Layer 1" xmlns="http://www.w3.org/2000/svg" xmlns:xlink="http://www.w3.org/1999/xlink" width="169.79mm" height="26.16mm" viewBox="0 0 481.28 74.15"><defs><style>.cls-1{fill:none;}.cls-2{clip-path:url(#clip-path);}.cls-3{fill:#c1ba86;}.cls-4{fill:#4d2f48;}.cls-5{fill:#fff;}</style><clipPath id="clip-path" transform="translate(-235 -513.4)"><rect class="cls-1" x="235" y="513.4" width="481.28" height="74.15"/></clipPath></defs><title>Untitled-2</title><g class="cls-2"><path class="cls-3" d="M709.59,538a7.11,7.11,0,0,0-5,1.91,6,6,0,0,0-2.08,4.61,5.5,5.5,0,0,0,.85,3.19,6,6,0,0,0,2.08,1.91,37.18,37.18,0,0,0,4.07,1.76,8.5,8.5,0,0,1,3.78,2.35,4.75,4.75,0,0,1-.57,6.29,5.17,5.17,0,0,1-3.68,1.41q-2.62,0-6.19-2.62v2.23a11.41,11.41,0,0,0,6.29,2.14,7.12,7.12,0,0,0,5.06-2,6.31,6.31,0,0,0,2.07-4.78,6.11,6.11,0,0,0-.9-3.46,6.23,6.23,0,0,0-2.18-2,34.76,34.76,0,0,0-4.08-1.76,8.5,8.5,0,0,1-3.67-2.2,4.11,4.11,0,0,1-.88-2.57,4.31,4.31,0,0,1,1.48-3.33,5.31,5.31,0,0,1,3.7-1.35,11.36,11.36,0,0,1,5.5,1.88v-2.09a11.68,11.68,0,0,0-5.68-1.55m-29.22.32v1.58h9.21v23h1.92v-23h9.21v-1.58Zm-8.31-.32a7.12,7.12,0,0,0-5,1.91,6,6,0,0,0-2.07,4.61,5.5,5.5,0,0,0,.85,3.19,6,6,0,0,0,2.08,1.91,37.18,37.18,0,0,0,4.07,1.76,8.5,8.5,0,0,1,3.78,2.35,4.75,4.75,0,0,1-.57,6.29,5.17,5.17,0,0,1-3.68,1.41q-2.62,0-6.19-2.62v2.23a11.41,11.41,0,0,0,6.29,2.14,7.12,7.12,0,0,0,5.06-2,6.31,6.31,0,0,0,2.07-4.78,6.1,6.1,0,0,0-.9-3.46,6.22,6.22,0,0,0-2.18-2,34.75,34.75,0,0,0-4.08-1.76,8.5,8.5,0,0,1-3.67-2.2,4.11,4.11,0,0,1-.88-2.57,4.31,4.31,0,0,1,1.48-3.33,5.31,5.31,0,0,1,3.7-1.35,11.36,11.36,0,0,1,5.5,1.88v-2.09a11.67,11.67,0,0,0-5.68-1.55m-13.39,24.87h1.9V538.36h-1.9ZM641.8,538.36v24.56h14v-1.58H643.7v-23Zm-20.14,14.48,5.27-11.57,5.29,11.57Zm4.77-14.66-11.35,24.73h2l3.87-8.49h12l3.88,8.49h2l-11.35-24.73Zm-16.17,24.73h1.9V538.36h-1.9ZM597.75,538a12.74,12.74,0,0,0-9.09,3.62,12.58,12.58,0,0,0-.08,18,12.94,12.94,0,0,0,9.34,3.59,18.48,18.48,0,0,0,8.7-2.3v-2a18.81,18.81,0,0,1-8.74,2.51,10.78,10.78,0,0,1-7.89-3,10.4,10.4,0,0,1-3.09-7.75,10.6,10.6,0,0,1,3.08-7.77,10.32,10.32,0,0,1,7.65-3.11,18.58,18.58,0,0,1,8.75,2.37V540.1a20.67,20.67,0,0,0-8.63-2.06m-29.43.32v24.56H582v-1.58H570.23v-10h11.2v-1.6h-11.2v-9.83h11.5v-1.58Zm-11.73,1.58a6.72,6.72,0,0,1,4.48,1.34,5,5,0,0,1,0,7.28,7.26,7.26,0,0,1-4.68,1.3H551.8v-9.91Zm-6.7,23h1.9V551.44h4.69q4,0,6.11-1.78a6,6,0,0,0,2.08-4.82,5.88,5.88,0,0,0-2.06-4.75,9,9,0,0,0-6-1.74h-6.77Zm-11-24.87a7.11,7.11,0,0,0-5,1.91,6,6,0,0,0-2.08,4.61,5.5,5.5,0,0,0,.85,3.19,6,6,0,0,0,2.08,1.91,37.18,37.18,0,0,0,4.07,1.76,8.5,8.5,0,0,1,3.78,2.35,4.75,4.75,0,0,1-.57,6.29,5.17,5.17,0,0,1-3.68,1.41q-2.62,0-6.19-2.62v2.23a11.41,11.41,0,0,0,6.29,2.14,7.11,7.11,0,0,0,5.06-2,6.31,6.31,0,0,0,2.07-4.78,6.11,6.11,0,0,0-.9-3.46,6.23,6.23,0,0,0-2.18-2,34.75,34.75,0,0,0-4.08-1.76,8.5,8.5,0,0,1-3.67-2.2,4.11,4.11,0,0,1-.88-2.57,4.31,4.31,0,0,1,1.49-3.33,5.31,5.31,0,0,1,3.7-1.35,11.36,11.36,0,0,1,5.5,1.88v-2.09a11.68,11.68,0,0,0-5.68-1.55m-29,25.12h.46l9.9-24.8h-1.95l-8.15,20.37L502,538.36h-.59l-8.24,20.37L485,538.36h-1.95l9.88,24.8h.51l8.23-20.72ZM467.6,552.84l5.27-11.57,5.29,11.57Zm4.77-14.66L461,562.92h2l3.87-8.49h12l3.89,8.49h2l-11.35-24.73Zm-25.54.18v24.56h14v-1.58H448.73v-23Zm-15.17,0-8.16,9.73-8.21-9.73H413l9.54,11.37v13.18h1.9V549.73L434,538.36Zm-29.11,0v24.56h14v-1.58H404.45v-23ZM395,562.92h1.9V538.36H395Zm-26.24-24.56h-1.9v24.56h1.9V541.14l9.38,11.48,9.34-11.48v21.78h1.92V538.36H387.5l-9.33,11.41Zm-22,14.48,5.27-11.57,5.29,11.57Zm4.77-14.66-11.35,24.73h2l3.87-8.49h12l3.89,8.49h2l-11.35-24.73Zm-23,.18v24.56h1.9V550.86h9.69v-1.58h-9.69v-9.33h10.74v-1.58Z" transform="translate(-235 -513.4)"/><path class="cls-4" d="M272.08,587.55A37.08,37.08,0,1,0,235,550.47a37.08,37.08,0,0,0,37.08,37.08" transform="translate(-235 -513.4)"/><path class="cls-5" d="M283.42,550c0-6.3,3.59-9.46,8.39-9.46,4.54,0,8.74,3.71,8.74,10.61,0,8.37-5.35,9.86-7.93,9.86-5.17,0-9.2-4.31-9.2-11m-2.73.8c0,5.18,3.28,11.3,11.15,11.3,6.93,0,11.47-5.32,11.47-11.76,0-6.7-4.83-10.78-11.3-10.78a11.13,11.13,0,0,0-11.33,11.24m-18.43,2.56c0,2.76,0,5-.14,6.24-.11.83-.26,1.47-.83,1.58a4.39,4.39,0,0,1-.86.11c-.17,0-.23.09-.23.17s.14.23.46.23c.86,0,2.53-.09,2.76-.09s1.9.09,3.31.09c.32,0,.46-.09.46-.23s-.06-.17-.23-.17a9.73,9.73,0,0,1-1.12-.11c-.86-.12-1-.75-1.12-1.58-.14-1.21-.14-3.48-.14-6.24v-2.82h.14c1.38,1.7,7.48,8.28,8.77,9.34s2,1.61,3.48,1.75c.63.06,1.18.06,2,.06h1.47c.49,0,.63-.09.63-.23s-.17-.17-.37-.17a5.28,5.28,0,0,1-1.78-.37c-1.38-.58-1.87-1-4.28-3.28-1.18-1.09-7.16-7.27-7.91-8.11.6-.72,5.61-5.61,6.32-6.3a10.68,10.68,0,0,1,3.1-2.47,4.25,4.25,0,0,1,1.61-.4c.23,0,.29-.06.29-.2s-.11-.2-.43-.2c-.72,0-2.62.09-2.76.09-.69,0-1.58-.09-2.16-.09-.2,0-.34.06-.34.2s.11.17.26.23a.56.56,0,0,1,.37.6c0,.49-.75,1.24-1.55,2.07-1,1.12-6.24,6.41-6.73,7h-.11V548.3c0-4.49,0-5.29.06-6.21s.29-1.49,1.06-1.64a4.23,4.23,0,0,1,.72-.09c.11,0,.23-.06.23-.17s-.14-.23-.46-.23c-.86,0-2.53.09-2.79.09s-1.87-.09-3.16-.09c-.32,0-.46.06-.46.23s.11.17.23.17a5.33,5.33,0,0,1,1,.09c.95.2,1.18.66,1.24,1.64s.06,1.72.06,6.21Zm-14.37,8.74a7.57,7.57,0,0,0,4.34-1.21,6,6,0,0,0,2.44-4.77c0-2.3-.81-4.08-4.2-6.75l-.81-.63c-2.76-2.16-3.51-3.19-3.51-4.83a3.27,3.27,0,0,1,3.54-3.33c2.64,0,3.42,1.21,3.59,1.52a5.05,5.05,0,0,1,.37,1.44c0,.23.06.37.23.37s.2-.2.2-.66c0-2,.11-2.9.11-3s-.06-.2-.29-.2a4.71,4.71,0,0,1-1-.14,11.12,11.12,0,0,0-2.67-.29c-3.65,0-6,2.1-6,5.17,0,2,.69,3.74,3.74,6.24l1.29,1.06c2.47,2,3.31,3.19,3.31,5.18a3.84,3.84,0,0,1-4.11,3.82c-1.93,0-3.82-.81-4.25-2.93a5,5,0,0,1-.09-1.06c0-.23,0-.32-.2-.32s-.2.14-.23.46-.14,1.61-.14,3c0,.78,0,.89.43,1.09a8.72,8.72,0,0,0,3.85.78" transform="translate(-235 -513.4)"/></g></svg>