<svg viewBox="0 0 760 238" xmlns="http://www.w3.org/2000/svg" fill-rule="evenodd" clip-rule="evenodd" stroke-linejoin="round" stroke-miterlimit="2"><path d="M347.1 223a100 100 0 01-3.1 14h1.9c1.8-4 3.4-8.4 4.8-13.2l-.3-.8h-3.3zm211.2 0c-.6 4.2-1.6 9-3 14h1.8c1.8-4 3.4-8.4 4.8-13.2l-.3-.8h-3.3zm-90.8-23v19.6c0 7.3 3.4 11 10.3 11 5.1 0 8.6-1.7 10.5-4.8h.2l.5 4.2h2.3v-30h-2.7v16.5c0 4.1-.9 7-2.5 8.8-1.7 1.8-4.4 2.7-8 2.7-2.7 0-4.7-.7-6-2-1.2-1.4-1.9-3.6-1.9-6.6V200h-2.7zm-160.1 0h-7.1v-3c0-3 .4-5 1.3-6.5.9-1.3 2.4-2 4.6-2 1.5 0 2.9.3 4.4.7l.6-2.4c-1.6-.5-3.3-.8-5-.8-3.1 0-5.3 1-6.7 2.7a15 15 0 00-2 8.6v2.4l-5.6 1.1v1.7h5.6V230h2.8v-27.5h7.1V200zm359.1-14h2.8v44h-2.8v-44zM459 228.1v-2.5c-2.4 1-4.9 1.4-7.7 1.4-3 .2-6-1-8-3.4-2-2.7-3-6-2.9-9.5 0-4.2 1-7.4 2.9-9.7 1.9-2.3 4.7-3.4 8.4-3.4 2 0 4.2.5 6.9 1.6l.7-2.7c-2.4-.9-4.9-1.4-7.5-1.4-4.4 0-7.9 1.4-10.4 4.1a16.4 16.4 0 00-3.9 11.6c0 4.8 1.3 8.6 3.7 11.3a13 13 0 0010.2 4c3.1 0 5.6-.5 7.6-1.4zm-204.9-14.5c-.7-1.3-1.9-2.4-3.5-3.5-1.6-1-4-2-7.1-3.2-3-1-5.2-2-6.4-2.8-1.1-.6-2-1.5-2.7-2.6a7 7 0 01-.8-3.7 7 7 0 012.6-5.7c1.8-1.4 4.2-2 7.2-2 3.1 0 6.3.7 9.7 2.1l1-2.5c-3.4-1.5-7-2.2-10.7-2.2a14 14 0 00-9.2 3 9.1 9.1 0 00-3.6 7.4c0 2.8.8 5 2.4 6.7 1.5 1.7 4.4 3.2 8.6 4.7 2.8 1 5 1.8 6.4 2.7a9 9 0 013.2 2.8c.7 1 1 2.3 1 3.8 0 2.5-1 4.6-2.9 6.1a13 13 0 01-8 2.3c-4.5 0-8.3-.6-11.2-1.9v3c2.6 1 6.4 1.4 11.4 1.4 4.2 0 7.5-1 10-3s3.7-4.7 3.7-8c0-2-.4-3.5-1.1-4.9zM285 229v-19.9c0-3.7-.8-6.3-2.5-8-1.6-1.7-4.1-2.6-7.4-2.6a22 22 0 00-9.9 2.5l1.1 2.3c3-1.5 5.9-2.3 8.7-2.3 2.6 0 4.5.7 5.6 2.2 1.2 1.4 1.8 3.5 1.8 6.3v2h-5.8c-4.6 0-8.2.8-10.6 2.5a7.7 7.7 0 00-3.7 7c0 2.6.8 4.7 2.4 6.2 1.7 1.6 4 2.3 7 2.3 2.2 0 4.1-.4 5.7-1.2 1.6-.8 3.1-2.2 4.7-4h.2l.7 4.7h2zm46.7.1c1.4-.3 3-.8 4.7-1.5v-2.5c-3 1.4-6.2 2-9.5 2-3.5 0-6.3-1.2-8.2-3.4-1.9-2.2-2.8-5.5-2.9-9.7h21.8v-2c0-4.2-1-7.5-3.1-9.9-2-2.4-4.8-3.6-8.4-3.6-4 0-7.2 1.4-9.6 4.3-2.4 3-3.6 6.7-3.6 11.5s1.2 8.5 3.7 11.2c2.5 2.7 5.9 4 10.3 4 1.7 0 3.3 0 4.8-.4zm64.6-15.5c-.8-1.3-1.9-2.4-3.5-3.5-1.6-1-4-2-7.2-3.2-3-1-5.1-2-6.4-2.8-1.1-.6-2-1.5-2.7-2.6-.5-1-.8-2.2-.8-3.7 0-2.4.9-4.3 2.7-5.7 1.8-1.4 4.2-2 7.2-2 3.1 0 6.3.7 9.7 2.1l1-2.5c-3.4-1.5-7-2.2-10.8-2.2a14 14 0 00-9.2 3 9.1 9.1 0 00-3.6 7.4c0 2.8.8 5 2.4 6.7a23 23 0 008.6 4.7c2.9 1 5 1.8 6.5 2.7a9 9 0 013.2 2.8c.6 1 .9 2.3.9 3.8 0 2.5-.9 4.6-2.9 6.1s-4.6 2.3-7.9 2.3c-4.6 0-8.3-.6-11.3-1.9v3c2.7 1 6.5 1.4 11.5 1.4 4.1 0 7.4-1 9.9-3s3.8-4.7 3.8-8c0-2-.4-3.5-1.1-4.9zm351.8 15.5c1.5-.3 3.1-.8 4.8-1.5v-2.5a24 24 0 01-9.5 2c-3.6 0-6.3-1.2-8.2-3.4-2-2.8-3.1-6.2-2.9-9.7h21.8v-2c0-4.2-1-7.5-3.1-9.9a10.6 10.6 0 00-8.4-3.6c-4.1 0-7.3 1.4-9.6 4.3-2.4 3-3.6 6.7-3.6 11.5s1.2 8.5 3.7 11.2c2.4 2.7 5.9 4 10.3 4 1.7 0 3.3 0 4.7-.4zm-205.2 0c1.5-.3 3-.8 4.7-1.5v-2.5c-3 1.3-6.2 2-9.5 2-3.5 0-6.2-1.2-8.1-3.4-2-2.8-3.1-6.2-2.9-9.7h21.8v-2c.2-3.6-1-7-3.1-9.9a10.7 10.7 0 00-8.5-3.6c-4 0-7.2 1.4-9.6 4.3-2.3 3-3.5 6.7-3.5 11.5s1.2 8.5 3.7 11.2c2.4 2.7 5.8 4 10.2 4 1.8 0 3.4 0 4.8-.4zm-119.1 0c1.4-.3 3-.8 4.7-1.5v-2.5a24 24 0 01-9.5 2c-3.6 0-6.3-1.2-8.2-3.4-2-2.8-3.1-6.2-2.9-9.7h21.8v-2c0-4.2-1-7.5-3.1-9.9a10.6 10.6 0 00-8.4-3.6c-4.1 0-7.3 1.4-9.6 4.3-2.4 3-3.6 6.7-3.6 11.5s1.2 8.5 3.7 11.2c2.4 2.7 5.9 4 10.3 4 1.7 0 3.3 0 4.8-.4zm191.7-36a16.6 16.6 0 00-13.3-5.6c-5.6 0-10.1 2-13.3 5.6a22.2 22.2 0 00-4.9 15.3c0 6.6 1.6 11.7 4.8 15.5 3.2 3.7 7.7 5.6 13.4 5.6 5.6 0 10.1-1.9 13.3-5.6 3.2-3.8 4.9-8.9 4.9-15.4s-1.7-11.6-4.9-15.4zm39.3 35.9v-19.6c0-7.3-3.4-10.9-10.3-10.9-5 0-8.5 1.6-10.5 4.7h-.1l-.6-4.2H631v30h2.8v-16.5c0-4 .8-7 2.5-8.8 1.6-1.8 4.3-2.7 7.9-2.7 2.7 0 4.7.7 6 2 1.2 1.4 1.9 3.6 1.9 6.6V229h2.7zm29-30h-2.7v30h2.7v-30zm35.6 30v-19.6c0-7.3-3.4-10.9-10.3-10.9-5 0-8.5 1.6-10.5 4.7h-.1l-.5-4.2h-2.4v30h2.8v-16.5c0-4 .8-7 2.5-8.8 1.7-1.8 4.3-2.7 7.9-2.7 2.7 0 4.7.7 6 2 1.3 1.4 1.9 3.6 1.9 6.6V229h2.7zm-209.2-29.2c-1.5 1-2.8 2.5-4 4.6h-.2l-.3-5.4h-2.3v30h2.7v-16.5c0-3.3.9-6 2.5-8.2 1.5-2 3.9-3.3 6.4-3.3 1.3 0 2.6.2 3.9.5l.5-2.7-4.1-.3c-2 0-3.7.5-5.1 1.3zm80.8-5c2.6-3.2 6.4-4.8 11.2-4.8 4.9 0 8.6 1.6 11.2 4.8 2.6 3.1 3.9 7.7 3.9 13.6 0 6-1.3 10.6-3.9 13.8-2.8 3.3-7 5-11.2 4.8-4.9 0-8.6-1.6-11.2-4.8-2.8-4-4.2-8.9-3.9-13.8 0-5.8 1.3-10.4 3.9-13.6zm-324.1 30.6a5.7 5.7 0 01-1.7-4.4c0-2.4.9-4.2 2.7-5.3 1.8-1 4.8-1.7 9.1-1.7h5.3v3c0 3.1-1 5.5-2.8 7.3a10.6 10.6 0 01-7.7 2.7c-2.1 0-3.7-.5-4.9-1.6zm65.5-21.6c1.5 1.8 2.3 4.4 2.3 7.7H316c.3-3.4 1.3-6 3.1-7.8a9.3 9.3 0 017-2.7c2.7 0 4.8 1 6.3 2.8zm416.5 0c1.5 1.8 2.3 4.4 2.3 7.7h-18.7a12 12 0 013-7.8 9.5 9.5 0 017.1-2.7c2.7 0 4.8 1 6.3 2.8zm-324.4 0c1.5 1.8 2.3 4.4 2.3 7.7h-18.7c.3-3.4 1.3-6 3-7.8a9.7 9.7 0 017.1-2.7c2.7 0 4.8 1 6.3 2.8zm119.1 0c1.6 1.8 2.3 4.4 2.3 7.7h-18.7c.3-3.4 1.3-6 3.1-7.8a9.4 9.4 0 017-2.7c2.7 0 4.8 1 6.3 2.8zm138.8-11.3c.6 0 1.1-.2 1.4-.7.3-.4.5-1 .5-1.8a3 3 0 00-.5-1.8c-.3-.5-.8-.7-1.4-.7-1.1 0-1.7.8-1.7 2.5s.6 2.5 1.7 2.5zM553.8 163c22 0 39.4-8.8 51.5-19.3V91h-52.5v18.7h31.7v23.8a49.4 49.4 0 01-30 9.7c-25.3 0-42.1-19.3-42.1-45v-.4c0-23.6 17.3-43.6 40.2-43.6 15.8 0 25.1 5.1 34.7 13.2L601 51a67 67 0 00-48.5-16.7c-34.6 0-63 28.4-63 63v1.2c0 36.7 25.5 64.5 64.3 64.5zm-276.5-.3c26 0 43.4-13.4 43.4-36.7v-.4c0-21-12.9-30.5-38.8-37-24-5.8-29.7-10-29.7-19.9v-.4c0-8.3 7.5-15 20.3-15 11.4 0 22.6 4.6 33.5 13.1l11.2-16.7a67.2 67.2 0 00-44.4-15c-24.5 0-41.5 14.2-41.5 35.6v.4c0 23.3 14.3 31.2 40.5 37.7 23.1 5.5 28.1 10.3 28.1 19.4v.3c0 9.4-8.6 16-22.1 16-14.6-.1-28.5-6-38.7-16.5l-12.7 16a74.4 74.4 0 0050.9 19.1zm82.9-.8H379l30.4-89.2 30.4 89.2h18.9l42.9-125.3h-22.8l-29.5 92.2-30.4-92.2h-18.4L370.1 129l-29.5-92.3h-23.5L360.2 162v-.1zm261.5-1.1h14.1v-80h28.8V69h-29v-7.5c0-13 5.3-19.5 15.9-19.5 4.6 0 8.3 1 13.3 2.3v-12c-4.8-1.7-10-2.5-15.1-2.3-8.3 0-15 2.5-19.8 7.1-5.3 5.2-8.2 13.2-8.2 23.8v8h-12.5v12h12.5v80-.1zm54.2 0h83.7v-12h-69.7V36.5h-14v124.3z" fill="#1f396f" fill-rule="nonzero"/><path d="M170.4 29a100.4 100.4 0 00-132.1-7.8 114.5 114.5 0 01137.4 70c4.2-20.8 2.5-42.4-5.3-62.2z" fill="url(#l1)" fill-rule="nonzero"/><path d="M100 0h-.1c-22.3 0-44 7.4-61.5 21.2a115 115 0 0161.6.2 115 115 0 0161.6-.2A99.8 99.8 0 00100 0z" fill="url(#l2)" fill-rule="nonzero"/><path d="M171 170.3a100.4 100.4 0 007.7-132 114.2 114.2 0 01-69.9 137.3c20.7 4.3 42.3 2.5 62.2-5.3z" fill="url(#l3)" fill-rule="nonzero"/><path d="M199.9 100v-.2c0-22.3-7.5-44-21.2-61.5 5.6 20.2 5.5 41.6-.2 61.7a114 114 0 01.2 61.6 99.6 99.6 0 0021.2-61.6z" fill="url(#l4)" fill-rule="nonzero"/><path d="M29.6 171a100.4 100.4 0 00132.1 7.6 114.4 114.4 0 01-137.4-69.8 110 110 0 005.3 62.1v.1z" fill="url(#l5)" fill-rule="nonzero"/><path d="M100 200h.1c22.3 0 44-7.6 61.5-21.4a115 115 0 01-61.6 0 115 115 0 01-61.6 0A99.3 99.3 0 00100 200z" fill="url(#l6)" fill-rule="nonzero"/><path d="M29 29.5a100.6 100.6 0 00-7.7 132.1A114.3 114.3 0 0191.1 24.3 109.1 109.1 0 0029 29.5z" fill="url(#l7)" fill-rule="nonzero"/><path d="M0 100c.1 21.8 7.2 43.5 21.3 61.5a114 114 0 01.2-61.6 114 114 0 01-.2-61.6A100 100 0 000 100z" fill="url(#l8)" fill-rule="nonzero"/><defs><linearGradient id="l1" x1="0" y1="0" x2="1" y2="0" gradientUnits="userSpaceOnUse" gradientTransform="rotate(26.7 -26.2 91.7) scale(153.8262)"><stop offset="0" stop-color="#00bcfb"/><stop offset="1" stop-color="#76ddff"/></linearGradient><linearGradient id="l2" x1="0" y1="0" x2="1" y2="0" gradientUnits="userSpaceOnUse" gradientTransform="scale(122.3382) rotate(.1 -88.2 167)"><stop offset="0" stop-color="#0097f9"/><stop offset="1" stop-color="#12a9fc"/></linearGradient><linearGradient id="l3" x1="0" y1="0" x2="1" y2="0" gradientUnits="userSpaceOnUse" gradientTransform="scale(-152.83) rotate(-63.4 -.8 .8)"><stop offset="0" stop-color="#1a8100"/><stop offset="1" stop-color="#26c100"/></linearGradient><linearGradient id="l4" x1="0" y1="0" x2="1" y2="0" gradientUnits="userSpaceOnUse" gradientTransform="rotate(90 70.8 108.5) scale(123.67)"><stop offset="0" stop-color="#035200"/><stop offset="1" stop-color="#046d00"/></linearGradient><linearGradient id="l5" x1="0" y1="0" x2="1" y2="0" gradientUnits="userSpaceOnUse" gradientTransform="rotate(27.9 -200 107.2) scale(153.6142)"><stop offset="0" stop-color="#fe9238"/><stop offset="1" stop-color="#fc7201"/></linearGradient><linearGradient id="l6" x1="0" y1="0" x2="1" y2="0" gradientUnits="userSpaceOnUse" gradientTransform="matrix(-122.584 .4279 -.4279 -122.584 161.5 178.5)"><stop offset="0" stop-color="#fa3b00"/><stop offset="1" stop-color="#fb4f09"/></linearGradient><linearGradient id="l7" x1="0" y1="0" x2="1" y2="0" gradientUnits="userSpaceOnUse" gradientTransform="scale(-153.2314) rotate(-62.7 -.4 .4)"><stop offset="0" stop-color="#0057e8"/><stop offset="1" stop-color="#003182"/></linearGradient><linearGradient id="l8" x1="0" y1="0" x2="1" y2="0" gradientUnits="userSpaceOnUse" gradientTransform="rotate(-90.7 91.4 70.1) scale(124.07026)"><stop offset="0" stop-color="#0a2577"/><stop offset="1" stop-color="#001690"/></linearGradient></defs></svg>